<?xml version="1.0" encoding="utf-8"?>
<!-- Generator: Adobe Illustrator 15.0.2, SVG Export Plug-In . SVG Version: 6.00 Build 0)  -->
<!DOCTYPE svg PUBLIC "-//W3C//DTD SVG 1.1//EN" "http://www.w3.org/Graphics/SVG/1.1/DTD/svg11.dtd">
<svg version="1.1" id="Layer_1" xmlns="http://www.w3.org/2000/svg" xmlns:xlink="http://www.w3.org/1999/xlink" x="0px" y="0px"
	 width="99.344px" height="36.333px" viewBox="0 0 99.344 36.333" enable-background="new 0 0 99.344 36.333" xml:space="preserve">
<g>
	<path d="M7.224,28.278H0.212C0.095,28.278,0,28.184,0,28.066v-0.384c0-0.116,0.095-0.211,0.212-0.211h1.624v-10.56H0.212
		C0.095,16.913,0,16.817,0,16.702v-0.384c0-0.118,0.095-0.212,0.212-0.212h5.177c0.117,0,0.213,0.095,0.213,0.212v11.156h1.623
		c0.116,0,0.212,0.093,0.212,0.21v0.384C7.436,28.184,7.341,28.278,7.224,28.278z"/>
	<path d="M3.717,13.643c-0.584,0-1.095-0.213-1.518-0.635c-0.426-0.425-0.639-0.935-0.639-1.522c0-0.583,0.214-1.094,0.639-1.519
		c0.422-0.422,0.933-0.636,1.518-0.636c0.586,0,1.097,0.214,1.52,0.637c0.423,0.424,0.637,0.936,0.637,1.519
		c0,0.587-0.214,1.097-0.638,1.52C4.814,13.43,4.302,13.643,3.717,13.643z"/>
	<path d="M47.811,28.278h-7.009c-0.118,0-0.213-0.092-0.213-0.212v-0.384c0-0.116,0.095-0.211,0.213-0.211h1.623v-10.56h-1.623
		c-0.118,0-0.213-0.096-0.213-0.211v-0.382c0-0.118,0.095-0.212,0.213-0.212h5.175c0.121,0,0.213,0.095,0.213,0.212v11.156h1.621
		c0.119,0,0.217,0.093,0.217,0.21v0.384C48.026,28.184,47.928,28.278,47.811,28.278z"/>
	<path d="M44.306,13.643c-0.584,0-1.098-0.213-1.52-0.635c-0.422-0.424-0.638-0.935-0.638-1.521c0-0.583,0.213-1.094,0.638-1.519
		c0.422-0.423,0.932-0.637,1.52-0.637c0.587,0,1.095,0.214,1.52,0.637c0.422,0.425,0.637,0.935,0.637,1.519
		c0,0.587-0.213,1.097-0.637,1.521C45.401,13.43,44.893,13.643,44.306,13.643z"/>
	<path d="M14.426,36.333c-1.168,0-2.119-0.133-2.827-0.398c-0.71-0.268-1.264-0.596-1.647-0.965
		c-0.39-0.377-0.646-0.778-0.768-1.188c-0.118-0.4-0.172-0.729-0.172-1.006c0-0.525,0.119-1.004,0.355-1.42
		c0.231-0.404,0.539-0.764,0.915-1.061c0.367-0.295,0.778-0.547,1.22-0.752c0.147-0.07,0.299-0.131,0.446-0.192
		c-0.12-0.019-0.244-0.04-0.369-0.065c-0.488-0.097-0.946-0.262-1.362-0.488c-0.428-0.232-0.792-0.559-1.084-0.969
		c-0.299-0.414-0.451-0.936-0.451-1.545c0-0.104,0.023-0.279,0.073-0.533c0.047-0.262,0.158-0.551,0.334-0.894
		c0.174-0.336,0.438-0.688,0.79-1.049c0.292-0.306,0.673-0.595,1.132-0.869c-0.101-0.08-0.204-0.169-0.312-0.263
		c-0.212-0.18-0.411-0.393-0.594-0.631c-0.182-0.244-0.341-0.529-0.465-0.846c-0.128-0.326-0.191-0.707-0.191-1.134
		c0-0.595,0.131-1.167,0.391-1.695c0.259-0.527,0.633-0.995,1.111-1.386c0.475-0.387,1.063-0.701,1.753-0.928
		c0.684-0.224,1.457-0.338,2.297-0.338c0.846,0,1.589,0.134,2.206,0.4c0.542,0.234,1.021,0.501,1.424,0.797
		c0.416-0.371,0.798-0.658,1.139-0.854c0.397-0.227,0.92-0.344,1.559-0.344c0.583,0,1.037,0.156,1.34,0.46
		c0.307,0.305,0.459,0.701,0.459,1.178c0,0.422-0.132,0.764-0.394,1.015c-0.26,0.247-0.604,0.374-1.021,0.374
		c-0.291,0-0.523-0.043-0.708-0.128c-0.183-0.086-0.326-0.194-0.429-0.32c-0.103-0.125-0.171-0.263-0.206-0.413
		c-0.026-0.119-0.049-0.213-0.067-0.287c-0.04-0.264-0.074-0.445-0.108-0.563c-0.009-0.032-0.101-0.039-0.152-0.039
		c-0.05,0-0.14,0.016-0.278,0.096c-0.113,0.063-0.299,0.185-0.557,0.36c0.181,0.217,0.372,0.483,0.573,0.791
		c0.278,0.425,0.419,1.041,0.419,1.828c0,0.48-0.094,0.961-0.274,1.432c-0.185,0.477-0.488,0.912-0.903,1.297
		c-0.412,0.385-0.946,0.697-1.591,0.933c-0.64,0.24-1.439,0.356-2.375,0.356c-0.746,0-1.417-0.078-1.996-0.225
		c-0.521-0.135-0.964-0.271-1.319-0.406c-0.537,0.364-0.711,0.594-0.759,0.729c-0.082,0.219-0.123,0.418-0.123,0.594
		c0,0.38,0.146,0.651,0.445,0.831c0.331,0.199,0.792,0.303,1.371,0.303h3.012c0.706,0,1.391,0.068,2.031,0.209
		c0.653,0.142,1.237,0.39,1.731,0.733c0.501,0.347,0.912,0.815,1.219,1.401c0.306,0.586,0.463,1.324,0.463,2.195
		c0,0.733-0.154,1.463-0.457,2.166c-0.303,0.695-0.751,1.33-1.334,1.875c-0.583,0.547-1.291,0.99-2.104,1.326
		C16.416,36.161,15.473,36.333,14.426,36.333z M13.487,29.485c-0.501,0.406-0.895,0.818-1.173,1.223
		c-0.275,0.398-0.416,0.947-0.416,1.633c0,0.312,0.045,0.654,0.132,1.019c0.085,0.354,0.248,0.688,0.484,1.007
		c0.235,0.309,0.56,0.569,0.967,0.774c0.406,0.202,0.945,0.308,1.604,0.308c0.5,0,0.98-0.086,1.429-0.264
		c0.449-0.17,0.845-0.413,1.181-0.723c0.333-0.31,0.607-0.686,0.813-1.114s0.309-0.903,0.309-1.415c0-0.51-0.083-0.924-0.247-1.229
		c-0.169-0.31-0.379-0.554-0.625-0.736c-0.248-0.182-0.524-0.309-0.824-0.375c-0.312-0.067-0.601-0.104-0.858-0.104L13.487,29.485
		L13.487,29.485z M14.865,16.528c-0.414,0-0.754,0.085-1.01,0.252c-0.259,0.17-0.458,0.395-0.597,0.672
		c-0.144,0.286-0.243,0.625-0.293,1.002c-0.054,0.386-0.082,0.794-0.082,1.205c0,0.84,0.054,1.514,0.161,2.008
		c0.103,0.481,0.244,0.848,0.415,1.084c0.165,0.228,0.353,0.365,0.581,0.429c0.255,0.067,0.532,0.103,0.824,0.103
		c0.304,0,0.576-0.039,0.811-0.115c0.214-0.071,0.395-0.205,0.551-0.416c0.164-0.222,0.294-0.553,0.389-0.986
		c0.098-0.451,0.146-1.047,0.146-1.777c0-0.521-0.018-1.006-0.055-1.449c-0.033-0.422-0.12-0.79-0.255-1.095
		c-0.131-0.293-0.312-0.515-0.556-0.678C15.661,16.609,15.311,16.528,14.865,16.528z"/>
	<path d="M39.077,28.278h-6.876c-0.116,0-0.211-0.092-0.211-0.212v-0.384c0-0.116,0.096-0.211,0.211-0.211h1.487v-8.443
		c0-0.709-0.139-1.23-0.414-1.546c-0.271-0.31-0.632-0.459-1.101-0.459c-0.401,0-0.792,0.097-1.161,0.29
		c-0.371,0.192-0.702,0.489-0.981,0.881c-0.286,0.399-0.52,0.903-0.693,1.496c-0.176,0.6-0.267,1.316-0.267,2.133v5.65h1.515
		c0.117,0,0.21,0.095,0.21,0.212v0.384c0,0.118-0.093,0.213-0.21,0.213H23.71c-0.117,0-0.212-0.093-0.212-0.213v-0.384
		c0-0.117,0.095-0.212,0.212-0.212h1.595v-10.56H23.71c-0.117,0-0.212-0.096-0.212-0.211v-0.384c0-0.118,0.095-0.212,0.212-0.212
		h5.095c0.116,0,0.211,0.095,0.211,0.212v1.959c0.013-0.025,0.027-0.048,0.04-0.075c0.192-0.354,0.473-0.71,0.835-1.05
		c0.362-0.346,0.833-0.648,1.401-0.904c0.572-0.258,1.294-0.387,2.142-0.387c1.258,0,2.253,0.371,2.959,1.106
		c0.704,0.731,1.059,1.737,1.059,2.995v7.512h1.625c0.116,0,0.212,0.093,0.212,0.211v0.384
		C39.289,28.184,39.194,28.278,39.077,28.278z"/>
	<path d="M58.272,28.611c-5.66,0-8.916-2.079-8.916-9.237v-2.294c0-7.155,3.256-9.185,8.916-9.185c1.629,0,9.248,0.294,10.236,0.561
		l-1.062,3.551c-1.331-0.108-7.065-0.241-8.694-0.241c-2.938,0-4.354,0.988-4.354,5.313v2.295c0,4.349,1.416,5.363,4.379,5.363
		c1.632,0,3.951-0.104,5.287-0.213l-1.062,3.549C62.014,28.321,59.901,28.611,58.272,28.611z"/>
	<path d="M85.565,28.077l-1.061-3.55c1.336,0.11,3.654,0.216,5.283,0.216c2.965,0,4.379-1.016,4.379-5.367v-2.296
		c0-4.326-1.414-5.313-4.353-5.313c-1.627,0-7.36,0.133-8.694,0.242l-1.062-3.551c0.99-0.267,8.607-0.561,10.238-0.561
		c5.66,0,8.918,2.029,8.918,9.185v2.294c0,7.156-3.258,9.24-8.918,9.24C88.665,28.611,86.553,28.321,85.565,28.077z"/>
	<polygon points="78.477,28.17 74.338,12.147 74.153,12.147 69.985,28.17 64.865,28.17 70.387,8.335 78.127,8.335 83.711,28.17 	"/>
</g>
</svg>
