<?xml version="1.0" encoding="utf-8"?>
<!-- Generator: Adobe Illustrator 15.0.2, SVG Export Plug-In . SVG Version: 6.00 Build 0)  -->
<!DOCTYPE svg PUBLIC "-//W3C//DTD SVG 1.1//EN" "http://www.w3.org/Graphics/SVG/1.1/DTD/svg11.dtd">
<svg version="1.1" id="Layer_1" xmlns="http://www.w3.org/2000/svg" xmlns:xlink="http://www.w3.org/1999/xlink" x="0px" y="0px"
	 width="114px" height="33.25px" viewBox="0 0 114 33.25" enable-background="new 0 0 114 33.25" xml:space="preserve">
<g>
	<path fill="#010202" d="M8.809,23.573H0.806c-0.134,0-0.242-0.107-0.242-0.242v-0.438c0-0.132,0.108-0.24,0.242-0.24h1.854V10.599
		H0.806c-0.134,0.002-0.242-0.107-0.242-0.238V9.922c0-0.134,0.108-0.242,0.242-0.242h5.909c0.133,0,0.243,0.109,0.243,0.242v12.733
		H8.81c0.132,0,0.241,0.106,0.241,0.239v0.438C9.05,23.466,8.942,23.573,8.809,23.573z"/>
	<path fill="#010202" d="M4.806,6.869c-0.667,0-1.25-0.243-1.732-0.725c-0.487-0.485-0.73-1.067-0.73-1.737
		c0-0.666,0.245-1.249,0.73-1.734c0.481-0.481,1.064-0.726,1.732-0.726c0.669,0,1.252,0.244,1.734,0.727
		c0.484,0.484,0.728,1.068,0.728,1.733c0,0.67-0.244,1.252-0.729,1.735C6.058,6.625,5.474,6.869,4.806,6.869z"/>
	<path fill="#010202" d="M55.135,23.573h-8c-0.135,0-0.243-0.105-0.243-0.242v-0.438c0-0.132,0.108-0.24,0.243-0.24h1.853V10.599
		h-1.853c-0.135,0-0.243-0.109-0.243-0.24V9.922c0-0.134,0.108-0.242,0.243-0.242h5.907c0.138,0,0.243,0.109,0.243,0.242v12.733
		h1.851c0.136,0,0.248,0.106,0.248,0.239v0.438C55.38,23.466,55.269,23.573,55.135,23.573z"/>
	<path fill="#010202" d="M51.134,6.869c-0.667,0-1.253-0.243-1.734-0.725c-0.482-0.484-0.729-1.067-0.729-1.736
		c0-0.665,0.243-1.248,0.729-1.733c0.481-0.483,1.063-0.727,1.734-0.727c0.67,0,1.25,0.244,1.735,0.727
		c0.481,0.485,0.727,1.067,0.727,1.733c0,0.67-0.243,1.252-0.727,1.736C52.384,6.625,51.804,6.869,51.134,6.869z"/>
	<path fill="#010202" d="M17.029,32.767c-1.333,0-2.419-0.151-3.227-0.454c-0.811-0.306-1.442-0.681-1.879-1.103
		c-0.446-0.43-0.738-0.887-0.877-1.354c-0.134-0.457-0.196-0.832-0.196-1.148c0-0.6,0.136-1.146,0.406-1.621
		c0.263-0.461,0.614-0.872,1.044-1.21c0.418-0.337,0.887-0.625,1.393-0.858c0.167-0.08,0.341-0.149,0.509-0.22
		c-0.137-0.021-0.279-0.045-0.421-0.075c-0.558-0.109-1.081-0.298-1.556-0.557c-0.488-0.265-0.903-0.638-1.237-1.105
		c-0.341-0.474-0.515-1.068-0.515-1.764c0-0.118,0.027-0.319,0.083-0.609c0.054-0.299,0.181-0.628,0.381-1.019
		c0.199-0.385,0.5-0.786,0.902-1.198c0.333-0.348,0.768-0.679,1.292-0.991c-0.115-0.092-0.233-0.193-0.356-0.3
		c-0.243-0.205-0.469-0.448-0.679-0.721c-0.208-0.278-0.389-0.604-0.531-0.965c-0.146-0.373-0.217-0.807-0.217-1.295
		c0-0.68,0.149-1.332,0.446-1.935c0.295-0.602,0.722-1.136,1.268-1.583c0.542-0.441,1.213-0.799,2.001-1.059
		c0.781-0.256,1.663-0.386,2.622-0.386c0.966,0,1.814,0.153,2.518,0.457c0.619,0.267,1.165,0.572,1.625,0.909
		c0.475-0.423,0.911-0.751,1.299-0.974c0.454-0.259,1.05-0.393,1.78-0.393c0.666,0,1.185,0.178,1.53,0.524
		c0.35,0.349,0.524,0.801,0.524,1.345c0,0.481-0.15,0.873-0.45,1.159c-0.297,0.282-0.689,0.428-1.165,0.428
		c-0.333,0-0.598-0.049-0.808-0.147c-0.209-0.098-0.373-0.222-0.489-0.365c-0.118-0.143-0.196-0.3-0.235-0.472
		c-0.03-0.135-0.057-0.243-0.077-0.327c-0.046-0.302-0.085-0.508-0.124-0.643c-0.01-0.037-0.115-0.044-0.172-0.044
		c-0.057,0-0.161,0.018-0.318,0.109c-0.129,0.072-0.341,0.21-0.635,0.411c0.206,0.248,0.424,0.551,0.653,0.902
		c0.318,0.485,0.479,1.188,0.479,2.086c0,0.548-0.107,1.097-0.312,1.634c-0.211,0.545-0.558,1.041-1.031,1.48
		c-0.471,0.44-1.079,0.797-1.816,1.065c-0.73,0.274-1.642,0.406-2.711,0.406c-0.852,0-1.617-0.09-2.278-0.257
		c-0.594-0.153-1.1-0.31-1.504-0.463c-0.613,0.416-0.812,0.677-0.868,0.832c-0.094,0.25-0.14,0.478-0.14,0.678
		c0,0.434,0.167,0.743,0.508,0.948c0.377,0.228,0.904,0.346,1.564,0.346h3.438c0.806,0,1.588,0.078,2.319,0.238
		c0.746,0.163,1.412,0.446,1.976,0.838c0.572,0.396,1.04,0.931,1.391,1.599c0.349,0.669,0.528,1.513,0.528,2.506
		c0,0.837-0.175,1.67-0.521,2.473c-0.345,0.792-0.857,1.518-1.522,2.141c-0.666,0.624-1.474,1.129-2.402,1.512
		C19.301,32.571,18.224,32.767,17.029,32.767z M15.957,24.95c-0.572,0.465-1.021,0.935-1.339,1.396
		c-0.313,0.455-0.475,1.082-0.475,1.863c0,0.357,0.052,0.748,0.15,1.164c0.098,0.404,0.283,0.785,0.553,1.151
		c0.269,0.353,0.64,0.648,1.104,0.883c0.464,0.229,1.079,0.353,1.832,0.353c0.571,0,1.118-0.101,1.63-0.304
		c0.513-0.193,0.964-0.471,1.348-0.825c0.38-0.353,0.693-0.782,0.929-1.271c0.235-0.489,0.353-1.031,0.353-1.615
		c0-0.583-0.095-1.056-0.282-1.403c-0.193-0.354-0.433-0.632-0.713-0.84c-0.283-0.208-0.598-0.353-0.94-0.429
		c-0.357-0.075-0.687-0.118-0.979-0.118L15.957,24.95L15.957,24.95z M17.531,10.161c-0.473,0-0.862,0.097-1.154,0.289
		c-0.295,0.194-0.522,0.45-0.681,0.767c-0.165,0.326-0.277,0.713-0.334,1.144c-0.061,0.441-0.093,0.907-0.093,1.375
		c0,0.958,0.062,1.728,0.184,2.292c0.117,0.55,0.278,0.969,0.474,1.237c0.188,0.262,0.402,0.418,0.663,0.491
		c0.291,0.075,0.606,0.117,0.939,0.117c0.348,0,0.658-0.044,0.926-0.132c0.244-0.081,0.451-0.233,0.629-0.474
		c0.187-0.254,0.335-0.631,0.444-1.126c0.112-0.515,0.167-1.195,0.167-2.029c0-0.595-0.021-1.148-0.062-1.653
		c-0.038-0.481-0.137-0.902-0.291-1.25c-0.15-0.334-0.356-0.587-0.635-0.773C18.439,10.254,18.039,10.161,17.531,10.161z"/>
	<path fill="#010202" d="M45.167,23.573h-7.849c-0.133,0-0.24-0.105-0.24-0.242v-0.438c0-0.132,0.109-0.24,0.24-0.24h1.697v-9.637
		c0-0.81-0.158-1.404-0.473-1.765c-0.309-0.354-0.721-0.524-1.256-0.524c-0.458,0-0.904,0.111-1.325,0.331
		c-0.423,0.219-0.802,0.558-1.12,1.005c-0.326,0.455-0.593,1.031-0.791,1.708c-0.201,0.685-0.305,1.503-0.305,2.435v6.449h1.73
		c0.134,0,0.24,0.108,0.24,0.241v0.438c0,0.135-0.106,0.244-0.24,0.244h-7.849c-0.133,0-0.242-0.106-0.242-0.244v-0.438
		c0-0.133,0.108-0.241,0.242-0.241h1.821V10.601h-1.821c-0.133,0-0.242-0.11-0.242-0.241V9.922c0-0.134,0.108-0.242,0.242-0.242
		h5.815c0.132,0,0.24,0.109,0.24,0.242v2.236c0.015-0.028,0.032-0.055,0.046-0.085c0.22-0.404,0.539-0.81,0.953-1.198
		c0.413-0.395,0.95-0.74,1.599-1.032C36.933,9.548,37.757,9.4,38.725,9.4c1.436,0,2.572,0.423,3.377,1.262
		c0.804,0.835,1.209,1.982,1.209,3.418v8.575h1.855c0.132,0,0.242,0.106,0.242,0.24v0.438
		C45.409,23.466,45.299,23.573,45.167,23.573z"/>
	<path fill="#010202" d="M67.075,23.953c-6.46,0-10.177-2.373-10.177-10.544v-2.618c0-8.167,3.717-10.483,10.177-10.483
		c1.858,0,10.555,0.335,11.684,0.64l-1.213,4.053c-1.518-0.123-8.063-0.274-9.922-0.274c-3.354,0-4.971,1.127-4.971,6.064v2.619
		c0,4.965,1.616,6.122,4.998,6.122c1.863,0,4.51-0.118,6.035-0.243l-1.213,4.051C71.346,23.622,68.934,23.953,67.075,23.953z"/>
	<path fill="#010202" d="M98.228,23.343l-1.211-4.052c1.525,0.126,4.171,0.247,6.03,0.247c3.384,0,4.998-1.159,4.998-6.126v-2.62
		c0-4.938-1.614-6.064-4.97-6.064c-1.856,0-8.398,0.151-9.922,0.275L91.94,0.95c1.131-0.305,9.825-0.64,11.687-0.64
		c6.461,0,10.179,2.316,10.179,10.484v2.618c0,8.168-3.718,10.547-10.179,10.547C101.767,23.953,99.355,23.622,98.228,23.343z"/>
	<polygon fill="#010202" points="90.137,23.45 85.413,5.161 85.201,5.161 80.443,23.45 74.601,23.45 80.903,0.81 89.738,0.81 
		96.111,23.45 	"/>
</g>
</svg>
